<mxfile host="app.diagrams.net" modified="2023-10-05T17:01:00.769Z" agent="Mozilla/5.0 (Windows NT 10.0; Win64; x64) AppleWebKit/537.36 (KHTML, like Gecko) Chrome/117.0.0.0 Safari/537.36" etag="e4Njy3VfG5Z3_WggK21U" version="22.0.0" type="device">
  <diagram name="第 1 页" id="4CEETFgeryz99YkwuXQg">
    <mxGraphModel dx="1669" dy="508" grid="1" gridSize="10" guides="1" tooltips="1" connect="1" arrows="1" fold="1" page="1" pageScale="1" pageWidth="827" pageHeight="1169" math="0" shadow="0">
      <root>
        <mxCell id="0" />
        <mxCell id="1" parent="0" />
        <mxCell id="s7djdmXtkBVAlTNJ39rU-1" value="&lt;font style=&quot;font-size: 20px;&quot;&gt;&lt;b&gt;Conv&lt;/b&gt;&lt;/font&gt;" style="rounded=1;whiteSpace=wrap;html=1;fillColor=#dae8fc;strokeColor=#6c8ebf;" parent="1" vertex="1">
          <mxGeometry x="270" y="245" width="60" height="140" as="geometry" />
        </mxCell>
        <mxCell id="s7djdmXtkBVAlTNJ39rU-3" value="&lt;span style=&quot;font-size: 20px;&quot;&gt;&lt;b&gt;ReLU&lt;br&gt;&lt;/b&gt;&lt;/span&gt;" style="rounded=1;whiteSpace=wrap;html=1;fillColor=#fff2cc;strokeColor=#d6b656;" parent="1" vertex="1">
          <mxGeometry x="340" y="245" width="60" height="140" as="geometry" />
        </mxCell>
        <mxCell id="s7djdmXtkBVAlTNJ39rU-4" value="&lt;span style=&quot;font-size: 20px;&quot;&gt;&lt;b&gt;Max&lt;br&gt;Pool&lt;br&gt;&lt;/b&gt;&lt;/span&gt;" style="rounded=1;whiteSpace=wrap;html=1;fillColor=#f8cecc;strokeColor=#b85450;" parent="1" vertex="1">
          <mxGeometry x="410" y="245" width="60" height="140" as="geometry" />
        </mxCell>
        <mxCell id="s7djdmXtkBVAlTNJ39rU-5" value="&lt;span style=&quot;font-size: 20px;&quot;&gt;&lt;b&gt;FC1&lt;/b&gt;&lt;/span&gt;" style="rounded=1;whiteSpace=wrap;html=1;fillColor=#d5e8d4;strokeColor=#82b366;" parent="1" vertex="1">
          <mxGeometry x="480" y="245" width="60" height="140" as="geometry" />
        </mxCell>
        <mxCell id="s7djdmXtkBVAlTNJ39rU-6" value="&lt;font style=&quot;font-size: 20px;&quot;&gt;&lt;b&gt;FC2&lt;/b&gt;&lt;/font&gt;" style="rounded=1;whiteSpace=wrap;html=1;fillColor=#d5e8d4;strokeColor=#82b366;" parent="1" vertex="1">
          <mxGeometry x="620" y="245" width="60" height="140" as="geometry" />
        </mxCell>
        <mxCell id="s7djdmXtkBVAlTNJ39rU-16" value="" style="group;" parent="1" vertex="1" connectable="0">
          <mxGeometry x="-220" y="240" width="150" height="150" as="geometry" />
        </mxCell>
        <mxCell id="s7djdmXtkBVAlTNJ39rU-12" value="" style="whiteSpace=wrap;html=1;aspect=fixed;fillColor=#bac8d3;strokeColor=#23445d;" parent="s7djdmXtkBVAlTNJ39rU-16" vertex="1">
          <mxGeometry x="30" width="120" height="120" as="geometry" />
        </mxCell>
        <mxCell id="s7djdmXtkBVAlTNJ39rU-13" value="" style="whiteSpace=wrap;html=1;aspect=fixed;fillColor=#bac8d3;strokeColor=#23445d;" parent="s7djdmXtkBVAlTNJ39rU-16" vertex="1">
          <mxGeometry x="20" y="10" width="120" height="120" as="geometry" />
        </mxCell>
        <mxCell id="s7djdmXtkBVAlTNJ39rU-14" value="" style="whiteSpace=wrap;html=1;aspect=fixed;fillColor=#bac8d3;strokeColor=#23445d;" parent="s7djdmXtkBVAlTNJ39rU-16" vertex="1">
          <mxGeometry x="10" y="20" width="120" height="120" as="geometry" />
        </mxCell>
        <mxCell id="s7djdmXtkBVAlTNJ39rU-15" value="" style="whiteSpace=wrap;html=1;aspect=fixed;fillColor=#bac8d3;strokeColor=#23445d;" parent="s7djdmXtkBVAlTNJ39rU-16" vertex="1">
          <mxGeometry y="30" width="120" height="120" as="geometry" />
        </mxCell>
        <mxCell id="s7djdmXtkBVAlTNJ39rU-22" value="" style="group" parent="1" vertex="1" connectable="0">
          <mxGeometry x="100" y="250" width="110" height="110" as="geometry" />
        </mxCell>
        <mxCell id="s7djdmXtkBVAlTNJ39rU-17" value="" style="whiteSpace=wrap;html=1;aspect=fixed;fillColor=#bac8d3;strokeColor=#23445d;" parent="s7djdmXtkBVAlTNJ39rU-22" vertex="1">
          <mxGeometry x="30" width="80" height="80" as="geometry" />
        </mxCell>
        <mxCell id="s7djdmXtkBVAlTNJ39rU-19" value="" style="whiteSpace=wrap;html=1;aspect=fixed;fillColor=#bac8d3;strokeColor=#23445d;" parent="s7djdmXtkBVAlTNJ39rU-22" vertex="1">
          <mxGeometry x="20" y="10" width="80" height="80" as="geometry" />
        </mxCell>
        <mxCell id="s7djdmXtkBVAlTNJ39rU-20" value="" style="whiteSpace=wrap;html=1;aspect=fixed;fillColor=#bac8d3;strokeColor=#23445d;" parent="s7djdmXtkBVAlTNJ39rU-22" vertex="1">
          <mxGeometry x="10" y="20" width="80" height="80" as="geometry" />
        </mxCell>
        <mxCell id="s7djdmXtkBVAlTNJ39rU-21" value="" style="whiteSpace=wrap;html=1;aspect=fixed;fillColor=#bac8d3;strokeColor=#23445d;" parent="s7djdmXtkBVAlTNJ39rU-22" vertex="1">
          <mxGeometry y="30" width="80" height="80" as="geometry" />
        </mxCell>
        <mxCell id="s7djdmXtkBVAlTNJ39rU-25" value="&lt;span style=&quot;font-size: 20px;&quot;&gt;&lt;b&gt;Resize&lt;/b&gt;&lt;/span&gt;" style="rounded=1;whiteSpace=wrap;html=1;fillColor=#fad9d5;strokeColor=#ae4132;" parent="1" vertex="1">
          <mxGeometry x="-20" y="240" width="70" height="140" as="geometry" />
        </mxCell>
        <mxCell id="s7djdmXtkBVAlTNJ39rU-26" value="" style="shape=flexArrow;endArrow=classic;html=1;rounded=0;fillColor=#b0e3e6;strokeColor=#0e8088;" parent="1" edge="1">
          <mxGeometry width="50" height="50" relative="1" as="geometry">
            <mxPoint x="-65" y="309.5" as="sourcePoint" />
            <mxPoint x="-25" y="310" as="targetPoint" />
          </mxGeometry>
        </mxCell>
        <mxCell id="s7djdmXtkBVAlTNJ39rU-27" value="" style="shape=flexArrow;endArrow=classic;html=1;rounded=0;fillColor=#b0e3e6;strokeColor=#0e8088;" parent="1" edge="1">
          <mxGeometry width="50" height="50" relative="1" as="geometry">
            <mxPoint x="57" y="314.5" as="sourcePoint" />
            <mxPoint x="97" y="315" as="targetPoint" />
          </mxGeometry>
        </mxCell>
        <mxCell id="s7djdmXtkBVAlTNJ39rU-29" value="" style="shape=flexArrow;endArrow=classic;html=1;rounded=0;fillColor=#b0e3e6;strokeColor=#0e8088;" parent="1" edge="1">
          <mxGeometry width="50" height="50" relative="1" as="geometry">
            <mxPoint x="220" y="314.5" as="sourcePoint" />
            <mxPoint x="260" y="315" as="targetPoint" />
          </mxGeometry>
        </mxCell>
        <mxCell id="HIzp4NZOcVO4NT1tl-fH-1" value="&lt;span style=&quot;font-size: 20px;&quot;&gt;&lt;b&gt;ReLU&lt;br&gt;&lt;/b&gt;&lt;/span&gt;" style="rounded=1;whiteSpace=wrap;html=1;fillColor=#fff2cc;strokeColor=#d6b656;" vertex="1" parent="1">
          <mxGeometry x="550" y="245" width="60" height="140" as="geometry" />
        </mxCell>
      </root>
    </mxGraphModel>
  </diagram>
</mxfile>
